<?xml version="1.0" encoding="utf-8"?>
<!-- Generator: Adobe Illustrator 23.0.0, SVG Export Plug-In . SVG Version: 6.00 Build 0)  -->
<svg version="1.1" id="Layer_1" xmlns="http://www.w3.org/2000/svg" xmlns:xlink="http://www.w3.org/1999/xlink" x="0px" y="0px"
	 viewBox="0 0 341 292" style="enable-background:new 0 0 341 292;" xml:space="preserve">
<style type="text/css">
	.st0{opacity:0.65;fill:#FBB040;stroke:#000000;stroke-miterlimit:10;}
	.st1{opacity:0.3;fill:#FBB040;stroke:#000000;stroke-miterlimit:10;}
	.st2{fill:#FBB040;stroke:#000000;stroke-miterlimit:10;}
	.st3{fill:none;stroke:#000000;stroke-miterlimit:10;}
	.st4{fill:#FFFFFF;stroke:#000000;stroke-miterlimit:10;}
</style>
<polygon class="st0" points="169,5.7 169,134.9 206.7,210.9 327.9,280.8 "/>
<polygon class="st1" points="10.2,280.8 131.3,210.9 206.7,210.9 327.9,280.8 "/>
<polygon class="st2" points="169,5.7 169,134.9 131.3,210.9 10.2,280.8 "/>
<polygon class="st3" points="169,5.7 248.4,143.3 327.9,280.8 169,280.8 10.2,280.8 89.6,143.3 "/>
<line class="st3" x1="169" y1="5.7" x2="169" y2="134.9"/>
<line class="st3" x1="10.2" y1="280.8" x2="131.3" y2="210.9"/>
<line class="st3" x1="327.9" y1="280.8" x2="206.7" y2="210.9"/>
<g>
	<path d="M100.9,187c0.3,1.5,0,3.5-0.8,4.8c-1.1,1.9-3.3,2.8-5.6,2.5c-2.5,3.9-7,5.1-10.8,2.9c-3.9-2.3-5-7-2.6-11.2
		c2.4-4.2,7.1-5.6,11-3.4c2.9,1.7,4.3,4.7,3.8,7.9c0.7-0.1,1.2-0.4,1.5-0.9c0.3-0.6,0.5-1.6,0.3-2.8L100.9,187z M91.5,192
		c1-1.8,0.3-4-1.7-5.2s-4.3-0.6-5.3,1.1c-1,1.8-0.4,4.1,1.6,5.3S90.5,193.7,91.5,192z"/>
	<path d="M101.2,169.5c3.5,2,4.4,5.8,2.2,9.6c-2.2,3.8-5.9,5-9.5,3l-7.7-4.5l2.3-4l7.7,4.5c1.5,0.9,3.1,0.4,3.9-0.9
		c0.8-1.3,0.4-2.8-1.2-3.7l-7.7-4.5l2.3-4L101.2,169.5z"/>
	<path d="M107.7,166.3l1.7,2l-2.4,4.1L97,158.9l2.4-4.1l16.5,2.2l-2.4,4.2l-2.6-0.5L107.7,166.3z M102,159.3l3.4,4.2l1.9-3.2
		L102,159.3z"/>
	<path d="M118.6,144.6l3.3,1.9l-5.5,9.6l-13.4-7.7l2.3-4l10,5.8L118.6,144.6z"/>
	<path d="M122.7,145.2l-13.4-7.7l2.3-4l13.4,7.7L122.7,145.2z"/>
	<path d="M120.1,126.2l10.2,5.9l-2.3,4l-10.2-5.9l-2.2,3.9l-3.2-1.8l6.8-11.7l3.2,1.8L120.1,126.2z"/>
	<path d="M137.6,119.4l-2.3,4l-4.2-2.4l-12-0.4l2.3-4l7.1,0.2l-3.8-6l2.3-3.9l6.3,10.1L137.6,119.4z"/>
</g>
<g>
	<path d="M117.7,252.6v3.8h-11V241h4.6v11.6H117.7z"/>
	<path d="M123.9,244.6v2.4h7.3v3.5h-7.3v2.4h8.3v3.5h-12.8V241h12.6v3.5H123.9z"/>
	<path d="M138.5,254l-0.9,2.5h-4.7l6.6-15.4h4.7l6.4,15.4h-4.9l-0.9-2.5H138.5z M141.7,245.6l-1.9,5h3.7L141.7,245.6z"/>
	<path d="M158.4,241c5,0,8.3,3.1,8.3,7.7s-3.4,7.7-8.4,7.7h-6.6V241H158.4z M156.2,252.9h2.3c2.1,0,3.5-1.6,3.5-4.1
		c0-2.5-1.5-4.1-3.7-4.1h-2.1V252.9z"/>
	<path d="M181.1,244.7v11.8h-4.6v-11.8H172V241h13.6v3.7H181.1z"/>
	<path d="M187,256.5V241h4.6v15.4H187z"/>
	<path d="M207.4,256.5l0-9.1l-3.1,7.6h-3l-3.1-7.6v9.1h-4V241h4.9l3.7,8.5l3.7-8.5h4.9v15.4H207.4z"/>
	<path d="M218.6,244.6v2.4h7.3v3.5h-7.3v2.4h8.3v3.5H214V241h12.6v3.5H218.6z"/>
</g>
<g>
	<path d="M225.6,136.5l-4-0.7c0.6-1.5,0.6-3.1-0.1-4.2c-1-1.8-3.3-2.3-5.3-1.2c-2,1.1-2.7,3.4-1.6,5.2c0.6,1,1.9,1.9,3.4,2.3
		l-1.1,3.7c-2.4-0.6-4.7-2.2-5.8-4.2c-2.3-4.1-1.1-8.7,2.8-11c3.9-2.2,8.5-0.8,10.9,3.3C225.9,131.6,226.2,134.3,225.6,136.5z"/>
	<path d="M229.6,153.8c-3.9,2.3-8.6,0.9-11.1-3.3c-2.4-4.2-1.3-9,2.7-11.2c3.9-2.3,8.6-0.8,11,3.4
		C234.7,146.8,233.6,151.6,229.6,153.8z M223.6,143.3c-2,1.2-2.7,3.6-1.6,5.3c1,1.8,3.3,2.3,5.3,1.1c2-1.2,2.7-3.4,1.7-5.2
		C227.9,142.8,225.6,142.1,223.6,143.3z"/>
	<path d="M242.2,163.3l-3.9,0.3c0-1.8-0.4-4.2-1.1-5.3c-0.4-0.7-0.9-1-1.4-0.7c-2,1.1,3.2,7.4-1.6,10.2c-2.8,1.6-5.6-0.1-7.4-3.1
		c-1.3-2.3-1.9-5.2-1.6-7.6l3.9-0.2c-0.4,2,0,4.8,0.8,6.2c0.5,0.8,1.1,1.2,1.7,0.9c2-1.2-3.3-7.4,1.4-10.1c2.6-1.5,5.5-0.2,7.4,3.1
		C241.7,158.9,242.3,161.3,242.2,163.3z"/>
	<path d="M245.1,172.6l-10.2,5.9l-2.3-4l10.2-5.9l-2.2-3.9l3.2-1.8l6.8,11.8l-3.2,1.8L245.1,172.6z"/>
</g>
<g>
	<path d="M136.3,268h-1.2v2.1h-2.4v-7.9h3.7c2.1,0,3.3,1,3.3,2.8c0,1.2-0.5,2-1.3,2.5l1.6,2.6h-2.7L136.3,268z M136.4,266.2
		c0.7,0,1.1-0.4,1.1-1.1c0-0.7-0.4-1.1-1.1-1.1h-1.3v2.2H136.4z"/>
	<path d="M143.3,264v1.2h3.7v1.8h-3.7v1.3h4.2v1.8h-6.6v-7.9h6.5v1.8H143.3z"/>
	<path d="M154.3,268.2v2h-5.7v-7.9h2.4v6H154.3z"/>
	<path d="M155.2,270.1v-7.9h2.4v7.9H155.2z"/>
	<path d="M161,268.9l-0.5,1.3h-2.4l3.4-7.9h2.4l3.3,7.9h-2.5l-0.5-1.3H161z M162.6,264.6l-1,2.6h1.9L162.6,264.6z"/>
	<path d="M171.6,262.2c1.9,0,3,0.8,3,2c0,0.8-0.5,1.5-1.3,1.7c1,0.2,1.6,1,1.6,2c0,1.4-1.2,2.2-3.1,2.2h-4.1v-7.9H171.6z
		 M170.1,265.3h1.4c0.5,0,0.8-0.3,0.8-0.7c0-0.4-0.3-0.7-0.8-0.7h-1.4V265.3z M170.1,268.4h1.4c0.6,0,1-0.3,1-0.8
		c0-0.4-0.4-0.7-1-0.7h-1.4V268.4z"/>
	<path d="M175.9,270.1v-7.9h2.4v7.9H175.9z"/>
	<path d="M185.2,268.2v2h-5.7v-7.9h2.4v6H185.2z"/>
	<path d="M186,270.1v-7.9h2.4v7.9H186z"/>
	<path d="M193.8,264.1v6h-2.4v-6h-2.3v-1.9h7v1.9H193.8z"/>
	<path d="M201.3,270.1H199v-2.5l-2.9-5.5h2.4l1.7,3.2l1.7-3.2h2.3l-2.8,5.4V270.1z"/>
</g>
<circle class="st4" cx="169" cy="182.3" r="47.3"/>
<g>
	<path d="M132.4,181.3l-1,1.2c-0.4-0.5-0.9-0.8-1.4-0.8c-0.8,0-1.4,0.7-1.4,1.6s0.6,1.6,1.4,1.6c0.5,0,1-0.3,1.4-0.7l1,1.1
		c-0.7,0.7-1.6,1.2-2.6,1.2c-1.8,0-3.2-1.3-3.2-3.1c0-1.8,1.4-3.1,3.3-3.1C130.8,180.2,131.8,180.6,132.4,181.3z"/>
	<path d="M139.1,183.3c0,1.8-1.4,3.1-3.3,3.1c-1.9,0-3.3-1.3-3.3-3.1c0-1.8,1.4-3.1,3.3-3.1C137.7,180.2,139.1,181.5,139.1,183.3z
		 M134.3,183.3c0,0.9,0.7,1.6,1.5,1.6c0.8,0,1.4-0.7,1.4-1.6c0-0.9-0.6-1.6-1.4-1.6C135,181.7,134.3,182.4,134.3,183.3z"/>
	<path d="M144.9,186.3l0-3.6l-1.2,3h-1.2l-1.2-3v3.6h-1.6v-6.1h1.9l1.5,3.4l1.5-3.4h1.9v6.1H144.9z"/>
	<path d="M150.3,180.3c1.6,0,2.5,0.8,2.5,2.2c0,1.4-0.9,2.3-2.5,2.3h-0.9v1.6h-1.8v-6.1H150.3z M149.3,183.3h0.9
		c0.5,0,0.8-0.3,0.8-0.8c0-0.5-0.3-0.8-0.8-0.8h-0.9V183.3z"/>
	<path d="M155.2,181.7v0.9h2.9v1.4h-2.9v1h3.2v1.4h-5v-6.1h4.9v1.4H155.2z"/>
	<path d="M162.4,181.7v4.6h-1.8v-4.6h-1.8v-1.4h5.3v1.4H162.4z"/>
	<path d="M164.7,186.3v-6.1h1.8v6.1H164.7z"/>
	<path d="M170.7,181.7v4.6h-1.8v-4.6h-1.8v-1.4h5.3v1.4H170.7z"/>
	<path d="M173,186.3v-6.1h1.8v6.1H173z"/>
	<path d="M177.6,186.3l-2.3-6.1h1.9l1.4,4.2l1.4-4.2h1.8l-2.3,6.1H177.6z"/>
	<path d="M184,181.7v0.9h2.9v1.4H184v1h3.2v1.4h-5v-6.1h4.9v1.4H184z"/>
	<path d="M192.4,186.3l-2.6-3.4v3.4h-1.6v-6.1h1.5l2.6,3.4v-3.4h1.6v6.1H192.4z"/>
	<path d="M196.7,181.7v0.9h2.9v1.4h-2.9v1h3.2v1.4h-5v-6.1h4.9v1.4H196.7z"/>
	<path d="M205.8,180.9l-0.7,1.4c-0.6-0.4-1.5-0.7-2-0.7c-0.3,0-0.5,0.1-0.5,0.3c0,0.9,3.2,0.4,3.2,2.5c0,1.3-1.1,1.9-2.5,1.9
		c-1,0-2.2-0.4-2.9-1l0.7-1.4c0.6,0.5,1.6,0.9,2.3,0.9c0.4,0,0.6-0.1,0.6-0.4c0-0.9-3.2-0.3-3.2-2.5c0-1.2,1-1.9,2.5-1.9
		C204.2,180.2,205.2,180.5,205.8,180.9z"/>
	<path d="M211.5,180.9l-0.7,1.4c-0.6-0.4-1.5-0.7-2-0.7c-0.3,0-0.5,0.1-0.5,0.3c0,0.9,3.2,0.4,3.2,2.5c0,1.3-1.1,1.9-2.5,1.9
		c-1,0-2.2-0.4-2.9-1l0.7-1.4c0.6,0.5,1.6,0.9,2.3,0.9c0.4,0,0.6-0.1,0.6-0.4c0-0.9-3.2-0.3-3.2-2.5c0-1.2,1-1.9,2.5-1.9
		C209.9,180.2,210.8,180.5,211.5,180.9z"/>
</g>
</svg>
